<svg id="Layer_1" data-name="Layer 1" xmlns="http://www.w3.org/2000/svg" width="156.75" height="41.41" viewBox="0 0 156.75 41.41"><defs><style>.cls-1{fill:#fff;}</style></defs><title>Untitled-2</title><rect width="156.75" height="28.03"/><path class="cls-1" d="M8.72,79.39l.33-4.23.24-5.3.16-5.26c0-.23,0-.83,0-1.82l2.55,0c.59,0,1.37,0,2.34,0l2.51,0a18.4,18.4,0,0,1,2.66.17,6.57,6.57,0,0,1,2.13.63,6.09,6.09,0,0,1,1.59,1.18,6.44,6.44,0,0,1,1.09,1.56A8.25,8.25,0,0,1,25,68.19a10.26,10.26,0,0,1,.23,2.15,10.89,10.89,0,0,1-.73,4,7.59,7.59,0,0,1-2.16,3.13A6.94,6.94,0,0,1,19.14,79a20.46,20.46,0,0,1-4,.35l-4.13,0Zm3.74-2.59c.66,0,1.32,0,2,0a18.66,18.66,0,0,0,2.05-.11,7.86,7.86,0,0,0,1.62-.35,4.37,4.37,0,0,0,1.37-.83,5.34,5.34,0,0,0,1.13-1.38,7.31,7.31,0,0,0,.67-1.75,8.54,8.54,0,0,0,.23-2,6.48,6.48,0,0,0-.62-3,3.89,3.89,0,0,0-1.64-1.69,7.31,7.31,0,0,0-3.13-.51c-.92,0-2,0-3.15,0Z" transform="translate(-1.63 -57.59)"/><path class="cls-1" d="M30.89,79.39c.09-.9.19-2.08.29-3.53s.16-2.61.18-3.47l-5.45-9.61,2.14,0,1.95,0c.36.85.89,1.91,1.59,3.21s1.3,2.47,1.8,3.55L37,63.71l.54-.93,2.09,0,2,0L35,72.65l-.15,3.08c0,.91-.08,2.13-.11,3.66l-1.89,0Z" transform="translate(-1.63 -57.59)"/><path class="cls-1" d="M42.13,79.39c.15-1.45.27-3.08.35-4.89l.28-6c.09-2.16.14-4.08.14-5.76l2.4,0,2.13,0c.91,1.6,2.18,3.69,3.79,6.26s2.92,4.7,3.91,6.38l.45-11.29c0-.26,0-.71,0-1.35l1.73,0,1.7,0-.3,4.47-.37,7.64-.15,4.5-2.15,0-2.29,0c-.41-.72-.71-1.26-.92-1.61l-2.13-3.31Q49.63,72.82,48,70.24c-.79-1.26-1.46-2.37-2-3.31-.07,1.32-.17,3.75-.3,7.31-.06,1.46-.1,3.17-.14,5.15l-1.65,0Z" transform="translate(-1.63 -57.59)"/><path class="cls-1" d="M71.17,62.49a12.25,12.25,0,0,1,3.48.5,7.82,7.82,0,0,1,2.95,1.62,7.53,7.53,0,0,1,2,2.63,8.56,8.56,0,0,1,.65,3.49,10.25,10.25,0,0,1-.62,3.58,7.44,7.44,0,0,1-1.92,2.94,7.92,7.92,0,0,1-3.17,1.83,13,13,0,0,1-7.66,0,7.91,7.91,0,0,1-3.09-1.71,6.85,6.85,0,0,1-1.86-2.68,9.49,9.49,0,0,1-.56-3.28,10.09,10.09,0,0,1,.7-3.7,7.35,7.35,0,0,1,2.06-2.92,9.31,9.31,0,0,1,3.17-1.75A12.48,12.48,0,0,1,71.17,62.49ZM71,65.08a6,6,0,0,0-3.2.85,5.28,5.28,0,0,0-2,2.31A7.35,7.35,0,0,0,65,71.41a6.48,6.48,0,0,0,.67,2.91,4.41,4.41,0,0,0,2,2,6.63,6.63,0,0,0,5.26.29,5.07,5.07,0,0,0,1.89-1.26,5.21,5.21,0,0,0,1.2-2,7.63,7.63,0,0,0,.4-2.48,7.74,7.74,0,0,0-.35-2.31A5,5,0,0,0,75,66.65a4.56,4.56,0,0,0-1.82-1.18A6.42,6.42,0,0,0,71,65.08Z" transform="translate(-1.63 -57.59)"/><path class="cls-1" d="M86.06,79.39l.26-3.55.27-5.29.17-5.21H84.37l-2.81.09c.07-1.17.1-2.06.11-2.67,2.33,0,4.78,0,7.33,0h4.37l2.33,0q-.12,1.74-.12,2.67c-1.47-.07-2.87-.11-4.22-.11h-.94l-.14,2.22-.35,8.55,0,1.43c0,.59,0,1.21,0,1.85l-1.85,0Z" transform="translate(-1.63 -57.59)"/><path class="cls-1" d="M106.31,62.49a12.15,12.15,0,0,1,3.48.5,7.86,7.86,0,0,1,3,1.62,7.5,7.5,0,0,1,1.94,2.63,8.56,8.56,0,0,1,.66,3.49,10.49,10.49,0,0,1-.62,3.58,7.55,7.55,0,0,1-1.92,2.94,8,8,0,0,1-3.17,1.83,12.82,12.82,0,0,1-3.93.6,12.63,12.63,0,0,1-3.74-.55,8.05,8.05,0,0,1-3.09-1.71A6.72,6.72,0,0,1,97,74.74a9.49,9.49,0,0,1-.56-3.28,9.89,9.89,0,0,1,.7-3.7,7.33,7.33,0,0,1,2-2.92,9.45,9.45,0,0,1,3.18-1.75A12.41,12.41,0,0,1,106.31,62.49Zm-.19,2.59a6,6,0,0,0-3.2.85,5.28,5.28,0,0,0-2,2.31,7.35,7.35,0,0,0-.69,3.17,6.48,6.48,0,0,0,.66,2.91,4.46,4.46,0,0,0,2,2,6.65,6.65,0,0,0,5.27.29A5.07,5.07,0,0,0,110,75.38a5.46,5.46,0,0,0,1.2-2,7.63,7.63,0,0,0,.4-2.48,7.44,7.44,0,0,0-.36-2.31,5,5,0,0,0-1.11-1.9,4.63,4.63,0,0,0-1.82-1.18A6.46,6.46,0,0,0,106.12,65.08Z" transform="translate(-1.63 -57.59)"/><path class="cls-1" d="M117.68,79.39l.22-2.88.31-6.39.14-4.64c0-.42,0-.84,0-1.27s0-.79,0-1.43l2.53,0c.52,0,1.25,0,2.17,0l2.2,0a9.25,9.25,0,0,1,2.47.24,4,4,0,0,1,1.47.84,3.78,3.78,0,0,1,1,1.37,5,5,0,0,1,.37,1.94,5.32,5.32,0,0,1-.79,2.85,4.82,4.82,0,0,1-2.17,1.92,7.34,7.34,0,0,1-3.08.63,10.15,10.15,0,0,1-1.76-.17c-.18-.85-.38-1.64-.61-2.37a7.61,7.61,0,0,0,1.49.15,4.61,4.61,0,0,0,1.75-.3,2.43,2.43,0,0,0,1.18-1A2.86,2.86,0,0,0,127,67.3a2.23,2.23,0,0,0-.19-.94,1.61,1.61,0,0,0-.52-.68,2,2,0,0,0-.77-.35,6,6,0,0,0-1.19-.09c-.46,0-.91,0-1.38,0l-1.22,0c-.1,1.59-.17,3.11-.22,4.56l-.14,4.65c0,1.65-.08,2.85-.08,3.62,0,.3,0,.72,0,1.27l-1.77,0Z" transform="translate(-1.63 -57.59)"/><path class="cls-1" d="M141.77,62.49a12.15,12.15,0,0,1,3.48.5,7.86,7.86,0,0,1,3,1.62,7.38,7.38,0,0,1,1.94,2.63,8.56,8.56,0,0,1,.66,3.49,10.49,10.49,0,0,1-.62,3.58,7.44,7.44,0,0,1-1.92,2.94,8,8,0,0,1-3.17,1.83,12.75,12.75,0,0,1-3.92.6,12.54,12.54,0,0,1-3.74-.55,7.91,7.91,0,0,1-3.09-1.71,6.64,6.64,0,0,1-1.86-2.68,9.49,9.49,0,0,1-.56-3.28,9.89,9.89,0,0,1,.7-3.7,7.25,7.25,0,0,1,2.06-2.92,9.31,9.31,0,0,1,3.17-1.75A12.41,12.41,0,0,1,141.77,62.49Zm-.19,2.59a6,6,0,0,0-3.2.85,5.28,5.28,0,0,0-2,2.31,7.35,7.35,0,0,0-.69,3.17,6.48,6.48,0,0,0,.66,2.91,4.46,4.46,0,0,0,2,2,6.65,6.65,0,0,0,5.27.29,5.07,5.07,0,0,0,1.89-1.26,5.46,5.46,0,0,0,1.2-2,7.63,7.63,0,0,0,.4-2.48,7.44,7.44,0,0,0-.36-2.31,5,5,0,0,0-1.11-1.9,4.56,4.56,0,0,0-1.82-1.18A6.42,6.42,0,0,0,141.58,65.08Z" transform="translate(-1.63 -57.59)"/><path d="M56,94.71H58.8v3.6a7.67,7.67,0,0,1-3.11.68,4.64,4.64,0,0,1-3.38-1.23,4.07,4.07,0,0,1-1.26-3,4.26,4.26,0,0,1,1.31-3.17,4.53,4.53,0,0,1,3.28-1.26,5.45,5.45,0,0,1,1.36.16,11.36,11.36,0,0,1,1.63.56v1.24a6,6,0,0,0-3-.88,3.18,3.18,0,0,0-2.34.95,3.36,3.36,0,0,0,0,4.7,3.38,3.38,0,0,0,2.45.92,5.87,5.87,0,0,0,1.75-.34l.11,0V95.79H56Z" transform="translate(-1.63 -57.59)"/><path d="M60.61,98.9V90.4h2.13a3.07,3.07,0,0,1,2.05.64,2.15,2.15,0,0,1,.76,1.73,2.12,2.12,0,0,1-1.44,2.09,3.81,3.81,0,0,1,.8.73A14.46,14.46,0,0,1,66,97.2c.3.48.54.84.71,1.09l.45.61H65.72l-.37-.56-.08-.11L65,97.9l-.38-.62-.41-.67a7.37,7.37,0,0,0-.69-.83,3.66,3.66,0,0,0-.56-.45,2,2,0,0,0-.85-.13h-.32v3.7Zm1.58-7.47h-.36v2.69h.46A3.54,3.54,0,0,0,63.56,94a1.26,1.26,0,0,0,.54-.48,1.47,1.47,0,0,0,.19-.73,1.22,1.22,0,0,0-.22-.72,1.13,1.13,0,0,0-.59-.46A4.31,4.31,0,0,0,62.19,91.43Z" transform="translate(-1.63 -57.59)"/><path d="M70.81,90.35h.86l3.81,8.55H74.23L73.1,96.38H69.48L68.41,98.9H67.16Zm1.79,5-1.37-3.08L70,95.3Z" transform="translate(-1.63 -57.59)"/><path d="M76.34,98.9V90.39H79A2.83,2.83,0,0,1,81,91a2.28,2.28,0,0,1,.72,1.77,2.33,2.33,0,0,1-.37,1.31,2.14,2.14,0,0,1-1,.83,5.17,5.17,0,0,1-1.84.26h-.91V98.9Zm2.48-7.43H77.56v2.66H78.9A1.71,1.71,0,0,0,80,93.78a1.26,1.26,0,0,0,.4-1C80.44,91.91,79.9,91.47,78.82,91.47Z" transform="translate(-1.63 -57.59)"/><path d="M88.75,90.4H90v8.5H88.75V95.2H84v3.7H82.76V90.4H84v3.67h4.77Z" transform="translate(-1.63 -57.59)"/><path d="M91.85,90.4h1.22v8.5H91.85Z" transform="translate(-1.63 -57.59)"/><path d="M102.28,96.93v1.33a6.3,6.3,0,0,1-3.09.73,4.79,4.79,0,0,1-2.42-.57,4.13,4.13,0,0,1-1.56-1.57,4.26,4.26,0,0,1-.58-2.18A4.17,4.17,0,0,1,96,91.55a4.55,4.55,0,0,1,3.26-1.26,7.58,7.58,0,0,1,3,.7V92.3a5.87,5.87,0,0,0-2.92-.85,3.34,3.34,0,0,0-2.42.92,3.26,3.26,0,0,0,0,4.6,3.42,3.42,0,0,0,2.43.91A5.53,5.53,0,0,0,102.28,96.93Z" transform="translate(-1.63 -57.59)"/><path d="M105.88,95.34l-.92-.57a4.12,4.12,0,0,1-1.24-1,2,2,0,0,1-.37-1.18,2.09,2.09,0,0,1,.69-1.63,2.61,2.61,0,0,1,1.81-.63,3.46,3.46,0,0,1,2,.6v1.38a2.81,2.81,0,0,0-2-.89,1.67,1.67,0,0,0-1,.28.84.84,0,0,0-.38.71,1.07,1.07,0,0,0,.28.71,3.5,3.5,0,0,0,.91.7l.93.55a2.73,2.73,0,0,1,1.55,2.36,2.2,2.2,0,0,1-.68,1.67,2.53,2.53,0,0,1-1.78.63,3.68,3.68,0,0,1-2.29-.77V96.67a2.82,2.82,0,0,0,2.28,1.25,1.45,1.45,0,0,0,1-.31,1,1,0,0,0,.38-.8C107,96.29,106.63,95.8,105.88,95.34Z" transform="translate(-1.63 -57.59)"/><rect y="37.47" width="47.75" height="0.73"/><rect x="109" y="37.47" width="47.75" height="0.73"/></svg>